<?xml version="1.0" encoding="utf-8"?>
<!-- Designed by Vexels.com - 2016 All Rights Reserved - https://vexels.com/terms-and-conditions/  -->

<svg version="1.0" id="Capa_1" xmlns="http://www.w3.org/2000/svg" xmlns:xlink="http://www.w3.org/1999/xlink" x="0px" y="0px"
	 width="1200px" height="1200px" viewBox="0 0 1200 1200" enable-background="new 0 0 1200 1200" xml:space="preserve">
<g>
	<path fill="#E86462" d="M1153.56,600c0-305.729-247.836-553.56-553.56-553.56C294.281,46.439,46.44,294.27,46.44,600
		c0,305.724,247.842,553.56,553.56,553.56C905.724,1153.56,1153.56,905.724,1153.56,600z"/>
	<g>
		<defs>
			<path id="SVGID_30_" d="M1153.56,600c0-305.729-247.836-553.56-553.56-553.56C294.281,46.439,46.44,294.27,46.44,600
				c0,305.724,247.842,553.56,553.56,553.56C905.724,1153.56,1153.56,905.724,1153.56,600z"/>
		</defs>
		<clipPath id="SVGID_2_">
			<use xlink:href="#SVGID_30_"  overflow="visible"/>
		</clipPath>
		<linearGradient id="SVGID_3_" gradientUnits="userSpaceOnUse" x1="653.6147" y1="574.3531" x2="1090.019" y2="1334.6863">
			<stop  offset="0" style="stop-color:#000000"/>
			<stop  offset="0.0849" style="stop-color:#1F1F1F;stop-opacity:0.9151"/>
			<stop  offset="0.2232" style="stop-color:#464647;stop-opacity:0.7768"/>
			<stop  offset="0.3978" style="stop-color:#656668;stop-opacity:0.6022"/>
			<stop  offset="0.6017" style="stop-color:#8A8A8C;stop-opacity:0.3983"/>
			<stop  offset="0.8275" style="stop-color:#B8B7B8;stop-opacity:0.1725"/>
			<stop  offset="1" style="stop-color:#DDDBDB;stop-opacity:0"/>
		</linearGradient>
		<path opacity="0.5" clip-path="url(#SVGID_2_)" fill-rule="evenodd" clip-rule="evenodd" fill="url(#SVGID_3_)" d="
			M609.196,317.405l183.49,239.597l260.06,29.72l390.085,390.085c0,0-34.717,279.643-371.348,317.042
			c-336.63,37.404-396.472-23.277-396.472-23.277L279.345,894.848l-8.713-109.964l-94.127-147.918l115.486-136.844l-28.473-148.707
			l-30.835-31.639l90.173-55.369l110.743,90.967l100.89-60.29L609.196,317.405z"/>
	</g>
	<g>
		<path fill-rule="evenodd" clip-rule="evenodd" fill="#05A65E" d="M252.719,863.973c7.924-61.343,11.14-121.185,3.812-178.61
			l265.653-6.906c1.471,41.832,43.852,120.834,87.99,214C575.97,941.515,346.581,992.929,252.719,863.973z"/>
		<path fill-rule="evenodd" clip-rule="evenodd" fill="#95BA55" d="M321.599,729.668c4.656,39.537,2.376,66.575-1.313,108.361
			c-4.555,56.025,45.374,72.494,57.145,75.013c99.959,21.379,225.434-6.331,205.775-51.502
			c-29.684-66.524-49.45-106.549-50.468-137.801L321.599,729.668L321.599,729.668z"/>
		<g>
			<path fill-rule="evenodd" clip-rule="evenodd" fill="#56BA5B" d="M1009.144,554.463c100.509,90.29,29.008,144.941-59.155,169.857
				c-165.491,46.804-915.844,68.707-784.985-227.724c24.229-54.911,117.73,20.651,90.595-52.489
				c-12.84-34.56-6.087-121.944,33.424-134.295c97.257-30.382,98.326,71.766,171.603,3.583
				c14.555-13.567,92.504-36.107,105.186,50.219C600.077,596.905,948.223,499.74,1009.144,554.463z"/>
			<path fill-rule="evenodd" clip-rule="evenodd" fill="#05A65E" d="M1027.647,563.73c100.524,90.295,29.013,144.936-59.119,169.862
				c-165.501,46.804-915.844,68.687-785.01-227.739c24.234-54.901,117.73,20.651,90.595-52.494
				c-12.825-34.544-6.071-121.944,33.44-134.274c97.257-30.397,98.315,71.766,171.592,3.573
				c14.575-13.567,92.493-36.112,105.186,50.219C618.621,606.178,966.752,509.003,1027.647,563.73z"/>
			<path fill-rule="evenodd" clip-rule="evenodd" fill="#218B56" d="M292.831,519.842c-44.529-12.845-39.104-88.452-15.547-123.134
				c55.124-81.15,157.139-18.295,170.935-15.257c5.649,1.221,30.84-32.158,61.669-42.707
				c96.987-33.171,184.397,104.743,65.827,164.198L292.831,519.842z"/>
			<path fill-rule="evenodd" clip-rule="evenodd" fill="#FFFFFF" d="M524.484,356.143c41.689-8.814,81.934,14.534,89.862,52.137
				c7.975,37.603-19.368,75.236-61.058,84.051c-41.685,8.81-81.929-14.529-89.872-52.147
				C455.466,402.59,482.82,364.952,524.484,356.143z"/>
			<path fill-rule="evenodd" clip-rule="evenodd" fill="#0C050D" d="M527.384,406.082c23.644-1.206,43.786,16.982,45.013,40.646
				c1.201,23.644-16.982,43.791-40.641,45.002c-23.654,1.211-43.802-16.987-45.007-40.626
				C485.532,427.45,503.72,407.288,527.384,406.082z"/>
			<path fill-rule="evenodd" clip-rule="evenodd" fill="#FFFFFF" d="M508.464,429.649c0.397-5.425,5.13-9.471,10.56-9.053
				c5.414,0.407,9.47,5.13,9.058,10.555c-0.402,5.425-5.145,9.481-10.559,9.074C512.102,439.812,508.051,435.079,508.464,429.649z"
				/>
			<path fill-rule="evenodd" clip-rule="evenodd" fill="#26704B" d="M630.361,453.898c5.226,76.102-162.02,85.791-182.778,2.016
				C473.303,465.44,577.216,483.252,630.361,453.898z"/>
			<path fill-rule="evenodd" clip-rule="evenodd" fill="#2A473A" d="M542.682,285.07c12.58,1.176,59.567,19.842,66.626,33.211
				c9.664,18.351-67.542-13.669-71.939-16.208C522.479,293.512,541.079,284.896,542.682,285.07z"/>
			<path fill-rule="evenodd" clip-rule="evenodd" fill="#FFFFFF" d="M365.92,373.089c-45.71-2.972-84.916,28.021-87.603,69.236
				c-2.672,41.206,32.178,77.023,77.873,80.005c45.659,2.977,84.88-28.02,87.552-69.241
				C446.428,411.873,411.563,376.061,365.92,373.089z"/>
			<path fill-rule="evenodd" clip-rule="evenodd" fill="#0C050D" d="M370.485,426.642c-25.354,2.336-43.99,24.783-41.613,50.122
				c2.341,25.344,24.784,43.969,50.102,41.628c25.333-2.346,43.974-24.789,41.633-50.117
				C418.265,442.936,395.823,424.285,370.485,426.642z"/>
			<path fill-rule="evenodd" clip-rule="evenodd" fill="#FFFFFF" d="M394.23,448.799c-1.267-5.695-6.916-9.287-12.631-8.03
				c-5.695,1.272-9.283,6.926-8.015,12.636c1.262,5.695,6.916,9.293,12.621,8.026C391.904,460.163,395.502,454.504,394.23,448.799z"
				/>
			<path fill-rule="evenodd" clip-rule="evenodd" fill="#26704B" d="M457.995,462.596c24.488,72.239-134.712,124.371-176.208,48.692
				C309.09,513.924,414.107,504.57,457.995,462.596z"/>
			<path fill-rule="evenodd" clip-rule="evenodd" fill="#2A473A" d="M309.024,257.761c-15.888,4.585-71.812,40.092-77.628,59.028
				c-7.959,25.995,83.583-34.112,88.661-38.448C337.156,263.695,311.065,257.141,309.024,257.761z"/>
			<path fill-rule="evenodd" clip-rule="evenodd" fill="#2A473A" d="M946.355,695.719c-13.196,0-23.954-17.674-23.954-39.364
				c0-21.664,10.758-39.369,23.954-39.369c13.15,0,23.898,17.705,23.898,39.369C970.253,678.045,959.505,695.719,946.355,695.719z"
				/>
			<path fill-rule="evenodd" clip-rule="evenodd" fill="#2A473A" d="M1018.818,610.615c-10.687,3.135-15.191,19.923-10.03,37.516
				c5.14,17.588,17.99,29.313,28.686,26.188c10.702-3.135,15.191-19.919,10.046-37.522
				C1042.375,619.2,1029.515,607.491,1018.818,610.615z"/>
			<path fill-rule="evenodd" clip-rule="evenodd" fill="#FFFFFF" d="M277.075,627.404l-20.071-36.285
				c-14.519,19.761-11.506,8.84-16.845,37.827c-11.145,60.595,33.567,31.343,32.086,36.463c-9.445,32.529,19.42,46.28,38.147,28.433
				c-0.031-0.254-1.786,47.211,37.562,25.679c9.247-5.074,6.096-8.524,8.234,2.753c0.539,2.937,1.873,8,5.084,11.262
				c6.117,6.188,39.404,18.046,39.984,3.201c0.051-1.003,29.293,35.445,48.565,8.484c3.216-4.524,1.359,16.473,22.661,16.473
				c26.244,0,1.532-24.015,28.432-0.896c2.478,2.127,20.82-6.947,20.82-17.623l-135.058-33.201L277.075,627.404z"/>
			<path fill-rule="evenodd" clip-rule="evenodd" fill="#2A473A" d="M240.826,576.228c3.003,27.985,30.458,79.547,106.829,119.175
				c49.654,25.74,120.32,46.763,218.936,53.287c-32.295-8.845-149.074-36.483-211.022-68.631
				c-70.035-36.31-94.997-81.486-97.582-105.649L240.826,576.228z"/>
			<path fill-rule="evenodd" clip-rule="evenodd" fill="#2A473A" d="M194.353,581.989c15.756,43.68,111.297,8.036,102.315-43.73
				C284.678,549.893,231.157,585.297,194.353,581.989z"/>
		</g>
	</g>
</g>
<g>
	<g>
		<defs>
			<path id="SVGID_109_" d="M-261.309,600c0-305.729-247.842-553.56-553.561-553.56c-305.724,0-553.56,247.831-553.56,553.56
				c0,305.724,247.836,553.56,553.56,553.56C-509.15,1153.56-261.309,905.724-261.309,600z"/>
		</defs>
		<use xlink:href="#SVGID_109_"  overflow="visible" fill="#EB9258"/>
		<clipPath id="SVGID_5_">
			<use xlink:href="#SVGID_109_"  overflow="visible"/>
		</clipPath>
		<linearGradient id="SVGID_6_" gradientUnits="userSpaceOnUse" x1="-696.3861" y1="655.0602" x2="-315.1577" y2="1319.2621">
			<stop  offset="0" style="stop-color:#000000"/>
			<stop  offset="0.0849" style="stop-color:#1F1F1F;stop-opacity:0.9151"/>
			<stop  offset="0.2232" style="stop-color:#464647;stop-opacity:0.7768"/>
			<stop  offset="0.3978" style="stop-color:#656668;stop-opacity:0.6022"/>
			<stop  offset="0.6017" style="stop-color:#8A8A8C;stop-opacity:0.3983"/>
			<stop  offset="0.8275" style="stop-color:#B8B7B8;stop-opacity:0.1725"/>
			<stop  offset="1" style="stop-color:#DDDBDB;stop-opacity:0"/>
		</linearGradient>
		<path opacity="0.3" clip-path="url(#SVGID_5_)" fill-rule="evenodd" clip-rule="evenodd" fill="url(#SVGID_6_)" d="
			M-646.737,399.252l96.799-18.789l141.668-57.033l520.548,516.593c0,0-119.033,416.426-455.662,453.826
			c-336.635,37.404-565.436-106.651-565.436-106.651l-397.393-370.675l106.959-35.028l-73.196-72.015l128.681-7.084l53.127-35.415
			l-94.447-132.228l208.62,78.412l-151.89-45.435l114.025-166.778L-646.737,399.252z"/>
	</g>
</g>
</svg>
