<?xml version="1.0" encoding="UTF-8"?>
<svg xmlns="http://www.w3.org/2000/svg" xmlns:xlink="http://www.w3.org/1999/xlink" width="3304.79" height="2415.33" viewBox="0 0 3304.79 2415.33">
<defs>
<clipPath id="clip-0">
<path clip-rule="nonzero" d="M 189 1765 L 3245 1765 L 3245 2356 L 189 2356 Z M 189 1765 "/>
</clipPath>
<clipPath id="clip-1">
<path clip-rule="evenodd" d="M 3176.441406 1957.929688 C 2668.308594 1783.148438 1947.398438 1753.199219 1477.988281 1769.628906 C 1090.261719 1783.191406 625.507812 1832.289062 257.4375 1957.941406 C 167.042969 2164.910156 185.933594 2260.359375 205.964844 2299.359375 C 226.246094 2338.839844 259.050781 2346.601562 266.878906 2348.238281 C 410.53125 2378.289062 598.800781 2302.519531 756.789062 2241.050781 C 859.5 2201.078125 965.714844 2159.761719 1065.96875 2138.351562 C 1541.398438 2036.851562 1892.480469 2036.839844 2367.898438 2138.339844 C 2468.160156 2159.738281 2574.371094 2201.070312 2677.089844 2241.03125 C 2833.460938 2301.878906 3022.371094 2378.359375 3167 2348.230469 C 3174.828125 2346.601562 3207.628906 2338.808594 3227.910156 2299.351562 C 3247.949219 2260.359375 3266.851562 2164.898438 3176.441406 1957.929688 "/>
</clipPath>
<linearGradient id="linear-pattern-0" gradientUnits="userSpaceOnUse" x1="-0.01471" y1="0" x2="1.014712" y2="0" gradientTransform="matrix(3011.21, 0, 0, 3011.21, 211.339, 2060.37)">
<stop offset="0" stop-color="rgb(41.567993%, 35.68573%, 65.881348%)" stop-opacity="1"/>
<stop offset="0.015625" stop-color="rgb(41.555786%, 35.700989%, 65.892029%)" stop-opacity="1"/>
<stop offset="0.03125" stop-color="rgb(41.412354%, 35.899353%, 66.03241%)" stop-opacity="1"/>
<stop offset="0.046875" stop-color="rgb(41.146851%, 36.265564%, 66.291809%)" stop-opacity="1"/>
<stop offset="0.0625" stop-color="rgb(40.882874%, 36.631775%, 66.549683%)" stop-opacity="1"/>
<stop offset="0.078125" stop-color="rgb(40.617371%, 36.99646%, 66.809082%)" stop-opacity="1"/>
<stop offset="0.09375" stop-color="rgb(40.353394%, 37.362671%, 67.066956%)" stop-opacity="1"/>
<stop offset="0.109375" stop-color="rgb(40.087891%, 37.728882%, 67.326355%)" stop-opacity="1"/>
<stop offset="0.125" stop-color="rgb(39.822388%, 38.095093%, 67.584229%)" stop-opacity="1"/>
<stop offset="0.140625" stop-color="rgb(39.558411%, 38.459778%, 67.843628%)" stop-opacity="1"/>
<stop offset="0.15625" stop-color="rgb(39.292908%, 38.825989%, 68.101501%)" stop-opacity="1"/>
<stop offset="0.171875" stop-color="rgb(39.027405%, 39.1922%, 68.360901%)" stop-opacity="1"/>
<stop offset="0.1875" stop-color="rgb(38.763428%, 39.558411%, 68.618774%)" stop-opacity="1"/>
<stop offset="0.203125" stop-color="rgb(38.497925%, 39.924622%, 68.878174%)" stop-opacity="1"/>
<stop offset="0.21875" stop-color="rgb(38.233948%, 40.289307%, 69.136047%)" stop-opacity="1"/>
<stop offset="0.234375" stop-color="rgb(37.968445%, 40.655518%, 69.393921%)" stop-opacity="1"/>
<stop offset="0.25" stop-color="rgb(37.702942%, 41.021729%, 69.65332%)" stop-opacity="1"/>
<stop offset="0.265625" stop-color="rgb(37.438965%, 41.387939%, 69.911194%)" stop-opacity="1"/>
<stop offset="0.28125" stop-color="rgb(37.173462%, 41.752625%, 70.170593%)" stop-opacity="1"/>
<stop offset="0.296875" stop-color="rgb(36.907959%, 42.118835%, 70.428467%)" stop-opacity="1"/>
<stop offset="0.3125" stop-color="rgb(36.643982%, 42.485046%, 70.687866%)" stop-opacity="1"/>
<stop offset="0.328125" stop-color="rgb(36.378479%, 42.851257%, 70.94574%)" stop-opacity="1"/>
<stop offset="0.34375" stop-color="rgb(36.114502%, 43.215942%, 71.205139%)" stop-opacity="1"/>
<stop offset="0.359375" stop-color="rgb(35.848999%, 43.582153%, 71.463013%)" stop-opacity="1"/>
<stop offset="0.375" stop-color="rgb(35.583496%, 43.948364%, 71.722412%)" stop-opacity="1"/>
<stop offset="0.390625" stop-color="rgb(35.319519%, 44.314575%, 71.980286%)" stop-opacity="1"/>
<stop offset="0.40625" stop-color="rgb(35.054016%, 44.67926%, 72.239685%)" stop-opacity="1"/>
<stop offset="0.421875" stop-color="rgb(34.790039%, 45.045471%, 72.497559%)" stop-opacity="1"/>
<stop offset="0.4375" stop-color="rgb(34.524536%, 45.411682%, 72.756958%)" stop-opacity="1"/>
<stop offset="0.453125" stop-color="rgb(34.259033%, 45.777893%, 73.014832%)" stop-opacity="1"/>
<stop offset="0.46875" stop-color="rgb(33.995056%, 46.142578%, 73.274231%)" stop-opacity="1"/>
<stop offset="0.484375" stop-color="rgb(33.729553%, 46.508789%, 73.532104%)" stop-opacity="1"/>
<stop offset="0.5" stop-color="rgb(33.46405%, 46.875%, 73.791504%)" stop-opacity="1"/>
<stop offset="0.515625" stop-color="rgb(33.200073%, 47.241211%, 74.049377%)" stop-opacity="1"/>
<stop offset="0.53125" stop-color="rgb(32.93457%, 47.607422%, 74.308777%)" stop-opacity="1"/>
<stop offset="0.546875" stop-color="rgb(32.670593%, 47.972107%, 74.56665%)" stop-opacity="1"/>
<stop offset="0.5625" stop-color="rgb(32.40509%, 48.338318%, 74.82605%)" stop-opacity="1"/>
<stop offset="0.578125" stop-color="rgb(32.139587%, 48.704529%, 75.083923%)" stop-opacity="1"/>
<stop offset="0.59375" stop-color="rgb(31.87561%, 49.07074%, 75.343323%)" stop-opacity="1"/>
<stop offset="0.609375" stop-color="rgb(31.610107%, 49.435425%, 75.601196%)" stop-opacity="1"/>
<stop offset="0.625" stop-color="rgb(31.344604%, 49.801636%, 75.860596%)" stop-opacity="1"/>
<stop offset="0.640625" stop-color="rgb(31.080627%, 50.167847%, 76.118469%)" stop-opacity="1"/>
<stop offset="0.65625" stop-color="rgb(30.815125%, 50.534058%, 76.377869%)" stop-opacity="1"/>
<stop offset="0.671875" stop-color="rgb(30.551147%, 50.898743%, 76.635742%)" stop-opacity="1"/>
<stop offset="0.6875" stop-color="rgb(30.285645%, 51.264954%, 76.895142%)" stop-opacity="1"/>
<stop offset="0.703125" stop-color="rgb(30.020142%, 51.631165%, 77.153015%)" stop-opacity="1"/>
<stop offset="0.71875" stop-color="rgb(29.756165%, 51.997375%, 77.412415%)" stop-opacity="1"/>
<stop offset="0.734375" stop-color="rgb(29.490662%, 52.362061%, 77.670288%)" stop-opacity="1"/>
<stop offset="0.75" stop-color="rgb(29.225159%, 52.728271%, 77.929688%)" stop-opacity="1"/>
<stop offset="0.765625" stop-color="rgb(28.961182%, 53.094482%, 78.187561%)" stop-opacity="1"/>
<stop offset="0.78125" stop-color="rgb(28.695679%, 53.460693%, 78.44696%)" stop-opacity="1"/>
<stop offset="0.796875" stop-color="rgb(28.431702%, 53.825378%, 78.704834%)" stop-opacity="1"/>
<stop offset="0.8125" stop-color="rgb(28.166199%, 54.191589%, 78.964233%)" stop-opacity="1"/>
<stop offset="0.828125" stop-color="rgb(27.900696%, 54.5578%, 79.222107%)" stop-opacity="1"/>
<stop offset="0.84375" stop-color="rgb(27.636719%, 54.924011%, 79.47998%)" stop-opacity="1"/>
<stop offset="0.859375" stop-color="rgb(27.371216%, 55.290222%, 79.73938%)" stop-opacity="1"/>
<stop offset="0.875" stop-color="rgb(27.107239%, 55.654907%, 79.997253%)" stop-opacity="1"/>
<stop offset="0.890625" stop-color="rgb(26.841736%, 56.021118%, 80.256653%)" stop-opacity="1"/>
<stop offset="0.90625" stop-color="rgb(26.576233%, 56.387329%, 80.514526%)" stop-opacity="1"/>
<stop offset="0.921875" stop-color="rgb(26.312256%, 56.75354%, 80.773926%)" stop-opacity="1"/>
<stop offset="0.9375" stop-color="rgb(26.046753%, 57.118225%, 81.031799%)" stop-opacity="1"/>
<stop offset="0.953125" stop-color="rgb(25.78125%, 57.484436%, 81.291199%)" stop-opacity="1"/>
<stop offset="0.96875" stop-color="rgb(25.517273%, 57.850647%, 81.549072%)" stop-opacity="1"/>
<stop offset="0.984375" stop-color="rgb(25.25177%, 58.216858%, 81.808472%)" stop-opacity="1"/>
<stop offset="1" stop-color="rgb(25.108337%, 58.415222%, 81.948853%)" stop-opacity="1"/>
</linearGradient>
<clipPath id="clip-2">
<path clip-rule="nonzero" d="M 279 189 L 3155 189 L 3155 1820 L 279 1820 Z M 279 189 "/>
</clipPath>
<clipPath id="clip-3">
<path clip-rule="evenodd" d="M 2027.210938 813.121094 L 1406.679688 813.121094 C 1372.230469 813.121094 1344.308594 785.210938 1344.308594 750.761719 C 1344.308594 716.308594 1372.230469 688.390625 1406.679688 688.390625 L 2027.210938 688.390625 C 2061.640625 688.390625 2089.570312 716.308594 2089.570312 750.761719 C 2089.570312 785.210938 2061.640625 813.121094 2027.210938 813.121094 Z M 2285.949219 1079.75 L 1147.921875 1079.75 C 1113.46875 1079.75 1085.550781 1051.839844 1085.550781 1017.390625 C 1085.550781 982.949219 1113.46875 955.03125 1147.921875 955.03125 L 2285.949219 955.03125 C 2320.398438 955.03125 2348.320312 982.949219 2348.320312 1017.390625 C 2348.320312 1051.828125 2320.398438 1079.75 2285.949219 1079.75 Z M 2285.949219 1346.398438 L 1147.921875 1346.398438 C 1113.46875 1346.398438 1085.550781 1318.46875 1085.550781 1284.03125 C 1085.550781 1249.589844 1113.46875 1221.671875 1147.921875 1221.671875 L 2285.949219 1221.660156 C 2320.398438 1221.660156 2348.320312 1249.589844 2348.320312 1284.03125 C 2348.320312 1318.46875 2320.398438 1346.398438 2285.949219 1346.398438 Z M 291.992188 1815.671875 C 877.269531 1637.011719 1702.671875 1612.351562 2309.488281 1666.511719 C 2588.929688 1691.460938 2887.710938 1736.488281 3154.738281 1819.578125 L 3108.289062 1021.019531 C 3080.71875 546.859375 2724.660156 189.289062 2280.078125 189.289062 L 1153.808594 189.28125 C 709.21875 189.28125 353.167969 546.851562 325.589844 1021.019531 L 279.132812 1819.570312 C 283.371094 1818.25 287.71875 1816.980469 291.992188 1815.671875 "/>
</clipPath>
<linearGradient id="linear-pattern-1" gradientUnits="userSpaceOnUse" x1="0.000000000000000014" y1="0" x2="0.999999" y2="0" gradientTransform="matrix(2875.61, 0, 0, 2875.61, 279.133, 1004.43)">
<stop offset="0" stop-color="rgb(41.567993%, 35.68573%, 65.881348%)" stop-opacity="1"/>
<stop offset="0.015625" stop-color="rgb(41.438293%, 35.862732%, 66.00647%)" stop-opacity="1"/>
<stop offset="0.03125" stop-color="rgb(41.181946%, 36.218262%, 66.25824%)" stop-opacity="1"/>
<stop offset="0.046875" stop-color="rgb(40.924072%, 36.573792%, 66.508484%)" stop-opacity="1"/>
<stop offset="0.0625" stop-color="rgb(40.666199%, 36.929321%, 66.760254%)" stop-opacity="1"/>
<stop offset="0.078125" stop-color="rgb(40.409851%, 37.284851%, 67.012024%)" stop-opacity="1"/>
<stop offset="0.09375" stop-color="rgb(40.151978%, 37.638855%, 67.262268%)" stop-opacity="1"/>
<stop offset="0.109375" stop-color="rgb(39.894104%, 37.994385%, 67.514038%)" stop-opacity="1"/>
<stop offset="0.125" stop-color="rgb(39.637756%, 38.349915%, 67.765808%)" stop-opacity="1"/>
<stop offset="0.140625" stop-color="rgb(39.379883%, 38.705444%, 68.016052%)" stop-opacity="1"/>
<stop offset="0.15625" stop-color="rgb(39.122009%, 39.060974%, 68.267822%)" stop-opacity="1"/>
<stop offset="0.171875" stop-color="rgb(38.865662%, 39.416504%, 68.519592%)" stop-opacity="1"/>
<stop offset="0.1875" stop-color="rgb(38.607788%, 39.772034%, 68.769836%)" stop-opacity="1"/>
<stop offset="0.203125" stop-color="rgb(38.349915%, 40.127563%, 69.021606%)" stop-opacity="1"/>
<stop offset="0.21875" stop-color="rgb(38.093567%, 40.483093%, 69.273376%)" stop-opacity="1"/>
<stop offset="0.234375" stop-color="rgb(37.835693%, 40.838623%, 69.523621%)" stop-opacity="1"/>
<stop offset="0.25" stop-color="rgb(37.57782%, 41.194153%, 69.775391%)" stop-opacity="1"/>
<stop offset="0.265625" stop-color="rgb(37.321472%, 41.548157%, 70.025635%)" stop-opacity="1"/>
<stop offset="0.28125" stop-color="rgb(37.063599%, 41.903687%, 70.277405%)" stop-opacity="1"/>
<stop offset="0.296875" stop-color="rgb(36.805725%, 42.259216%, 70.529175%)" stop-opacity="1"/>
<stop offset="0.3125" stop-color="rgb(36.549377%, 42.614746%, 70.779419%)" stop-opacity="1"/>
<stop offset="0.328125" stop-color="rgb(36.291504%, 42.970276%, 71.031189%)" stop-opacity="1"/>
<stop offset="0.34375" stop-color="rgb(36.03363%, 43.325806%, 71.282959%)" stop-opacity="1"/>
<stop offset="0.359375" stop-color="rgb(35.777283%, 43.681335%, 71.533203%)" stop-opacity="1"/>
<stop offset="0.375" stop-color="rgb(35.519409%, 44.036865%, 71.784973%)" stop-opacity="1"/>
<stop offset="0.390625" stop-color="rgb(35.261536%, 44.392395%, 72.036743%)" stop-opacity="1"/>
<stop offset="0.40625" stop-color="rgb(35.005188%, 44.747925%, 72.286987%)" stop-opacity="1"/>
<stop offset="0.421875" stop-color="rgb(34.747314%, 45.103455%, 72.538757%)" stop-opacity="1"/>
<stop offset="0.4375" stop-color="rgb(34.489441%, 45.457458%, 72.790527%)" stop-opacity="1"/>
<stop offset="0.453125" stop-color="rgb(34.233093%, 45.812988%, 73.040771%)" stop-opacity="1"/>
<stop offset="0.46875" stop-color="rgb(33.97522%, 46.168518%, 73.292542%)" stop-opacity="1"/>
<stop offset="0.484375" stop-color="rgb(33.717346%, 46.524048%, 73.542786%)" stop-opacity="1"/>
<stop offset="0.5" stop-color="rgb(33.460999%, 46.879578%, 73.794556%)" stop-opacity="1"/>
<stop offset="0.515625" stop-color="rgb(33.203125%, 47.235107%, 74.046326%)" stop-opacity="1"/>
<stop offset="0.53125" stop-color="rgb(32.945251%, 47.590637%, 74.29657%)" stop-opacity="1"/>
<stop offset="0.546875" stop-color="rgb(32.688904%, 47.946167%, 74.54834%)" stop-opacity="1"/>
<stop offset="0.5625" stop-color="rgb(32.43103%, 48.301697%, 74.80011%)" stop-opacity="1"/>
<stop offset="0.578125" stop-color="rgb(32.174683%, 48.657227%, 75.050354%)" stop-opacity="1"/>
<stop offset="0.59375" stop-color="rgb(31.916809%, 49.012756%, 75.302124%)" stop-opacity="1"/>
<stop offset="0.609375" stop-color="rgb(31.658936%, 49.36676%, 75.553894%)" stop-opacity="1"/>
<stop offset="0.625" stop-color="rgb(31.402588%, 49.72229%, 75.804138%)" stop-opacity="1"/>
<stop offset="0.640625" stop-color="rgb(31.144714%, 50.07782%, 76.055908%)" stop-opacity="1"/>
<stop offset="0.65625" stop-color="rgb(30.886841%, 50.43335%, 76.307678%)" stop-opacity="1"/>
<stop offset="0.671875" stop-color="rgb(30.630493%, 50.788879%, 76.557922%)" stop-opacity="1"/>
<stop offset="0.6875" stop-color="rgb(30.37262%, 51.144409%, 76.809692%)" stop-opacity="1"/>
<stop offset="0.703125" stop-color="rgb(30.114746%, 51.499939%, 77.059937%)" stop-opacity="1"/>
<stop offset="0.71875" stop-color="rgb(29.858398%, 51.855469%, 77.311707%)" stop-opacity="1"/>
<stop offset="0.734375" stop-color="rgb(29.600525%, 52.210999%, 77.563477%)" stop-opacity="1"/>
<stop offset="0.75" stop-color="rgb(29.342651%, 52.566528%, 77.813721%)" stop-opacity="1"/>
<stop offset="0.765625" stop-color="rgb(29.086304%, 52.922058%, 78.065491%)" stop-opacity="1"/>
<stop offset="0.78125" stop-color="rgb(28.82843%, 53.276062%, 78.317261%)" stop-opacity="1"/>
<stop offset="0.796875" stop-color="rgb(28.570557%, 53.631592%, 78.567505%)" stop-opacity="1"/>
<stop offset="0.8125" stop-color="rgb(28.314209%, 53.987122%, 78.819275%)" stop-opacity="1"/>
<stop offset="0.828125" stop-color="rgb(28.056335%, 54.342651%, 79.071045%)" stop-opacity="1"/>
<stop offset="0.84375" stop-color="rgb(27.798462%, 54.698181%, 79.321289%)" stop-opacity="1"/>
<stop offset="0.859375" stop-color="rgb(27.542114%, 55.053711%, 79.573059%)" stop-opacity="1"/>
<stop offset="0.875" stop-color="rgb(27.284241%, 55.409241%, 79.824829%)" stop-opacity="1"/>
<stop offset="0.890625" stop-color="rgb(27.026367%, 55.764771%, 80.075073%)" stop-opacity="1"/>
<stop offset="0.90625" stop-color="rgb(26.77002%, 56.1203%, 80.326843%)" stop-opacity="1"/>
<stop offset="0.921875" stop-color="rgb(26.512146%, 56.47583%, 80.577087%)" stop-opacity="1"/>
<stop offset="0.9375" stop-color="rgb(26.254272%, 56.83136%, 80.828857%)" stop-opacity="1"/>
<stop offset="0.953125" stop-color="rgb(25.997925%, 57.185364%, 81.080627%)" stop-opacity="1"/>
<stop offset="0.96875" stop-color="rgb(25.740051%, 57.540894%, 81.330872%)" stop-opacity="1"/>
<stop offset="0.984375" stop-color="rgb(25.482178%, 57.896423%, 81.582642%)" stop-opacity="1"/>
<stop offset="1" stop-color="rgb(25.22583%, 58.251953%, 81.834412%)" stop-opacity="1"/>
</linearGradient>
<clipPath id="clip-4">
<path clip-rule="nonzero" d="M 0 0 L 3304.789062 0 L 3304.789062 2415.328125 L 0 2415.328125 Z M 0 0 "/>
</clipPath>
</defs>
<g clip-path="url(#clip-0)">
<g clip-path="url(#clip-1)">
<path fill-rule="nonzero" fill="url(#linear-pattern-0)" d="M 167.042969 1753.199219 L 167.042969 2378.359375 L 3266.851562 2378.359375 L 3266.851562 1753.199219 Z M 167.042969 1753.199219 "/>
</g>
</g>
<g clip-path="url(#clip-2)">
<g clip-path="url(#clip-3)">
<path fill-rule="nonzero" fill="url(#linear-pattern-1)" d="M 279.132812 189.28125 L 279.132812 1819.578125 L 3154.738281 1819.578125 L 3154.738281 189.28125 Z M 279.132812 189.28125 "/>
</g>
</g>
<g clip-path="url(#clip-4)">
<path fill-rule="evenodd" fill="rgb(21.166992%, 4.315186%, 29.417419%)" fill-opacity="1" d="M 227.441406 1751.128906 C 223.167969 1752.429688 218.820312 1753.699219 214.582031 1755.019531 L 261.039062 956.460938 C 288.621094 482.300781 644.667969 124.730469 1089.261719 124.730469 L 2215.53125 124.738281 C 2660.109375 124.738281 3016.171875 482.308594 3043.75 956.46875 L 3090.191406 1755.03125 C 2823.160156 1671.941406 2524.378906 1626.910156 2244.941406 1601.960938 C 1638.128906 1547.800781 812.722656 1572.460938 227.441406 1751.128906 Z M 85.394531 1828.109375 L 136.519531 949.21875 C 166.75 429.519531 564.261719 0 1089.261719 0 L 2215.53125 0 C 2740.53125 0 3138.019531 429.5 3168.261719 949.21875 L 3219.378906 1828.089844 C 3311.609375 2033.191406 3329.261719 2190.789062 3271.769531 2296.628906 C 3213.371094 2404.148438 3109.628906 2415.328125 3031.710938 2415.328125 C 2784.109375 2415.328125 2510.429688 2245.550781 2277.308594 2195.78125 C 1821.511719 2098.460938 1483.28125 2098.460938 1027.46875 2195.769531 C 758.078125 2253.289062 458.3125 2459.859375 177.964844 2406.019531 C 160.5 2402.910156 80.597656 2384.21875 33.023438 2296.628906 C -24.460938 2190.789062 -6.832031 2033.199219 85.394531 1828.109375 Z M 1962.660156 748.570312 L 1342.128906 748.570312 C 1307.679688 748.570312 1279.761719 720.648438 1279.761719 686.210938 C 1279.761719 651.761719 1307.679688 623.839844 1342.128906 623.839844 L 1962.660156 623.839844 C 1997.089844 623.839844 2025.019531 651.761719 2025.019531 686.210938 C 2025.019531 720.648438 1997.089844 748.570312 1962.660156 748.570312 Z M 2221.398438 1015.210938 L 1083.371094 1015.210938 C 1048.921875 1015.210938 1021 987.289062 1021 952.839844 C 1021 918.398438 1048.921875 890.480469 1083.371094 890.480469 L 2221.398438 890.46875 C 2255.851562 890.46875 2283.769531 918.398438 2283.769531 952.839844 C 2283.769531 987.28125 2255.851562 1015.210938 2221.398438 1015.210938 Z M 2221.398438 1281.851562 L 1083.371094 1281.851562 C 1048.921875 1281.851562 1021 1253.921875 1021 1219.480469 C 1021 1185.039062 1048.921875 1157.109375 1083.371094 1157.109375 L 2221.398438 1157.109375 C 2255.851562 1157.109375 2283.769531 1185.03125 2283.769531 1219.480469 C 2283.769531 1253.921875 2255.851562 1281.851562 2221.398438 1281.851562 Z M 3111.890625 1893.378906 C 2603.761719 1718.601562 1882.851562 1688.648438 1413.441406 1705.078125 C 1025.699219 1718.640625 560.953125 1767.738281 192.886719 1893.390625 C 102.492188 2100.359375 121.382812 2195.808594 141.414062 2234.808594 C 161.699219 2274.289062 194.503906 2282.050781 202.328125 2283.691406 C 345.980469 2313.738281 534.253906 2237.96875 692.242188 2176.5 C 794.949219 2136.53125 901.164062 2095.210938 1001.421875 2073.800781 C 1476.851562 1972.300781 1827.941406 1972.289062 2303.351562 2073.789062 C 2403.609375 2095.191406 2509.820312 2136.519531 2612.539062 2176.480469 C 2768.910156 2237.328125 2957.820312 2313.808594 3102.449219 2283.679688 C 3110.28125 2282.050781 3143.078125 2274.261719 3163.359375 2234.800781 C 3183.398438 2195.800781 3202.300781 2100.351562 3111.890625 1893.378906 "/>
</g>
</svg>
