<?xml version="1.0" encoding="UTF-8"?>
<svg xmlns="http://www.w3.org/2000/svg" xmlns:xlink="http://www.w3.org/1999/xlink" width="3873" height="3872.9" viewBox="0 0 3873 3872.9">
<defs>
<clipPath id="clip-0">
<path clip-rule="nonzero" d="M 0 0 L 3873 0 L 3873 3872.898438 L 0 3872.898438 Z M 0 0 "/>
</clipPath>
<clipPath id="clip-1">
<path clip-rule="evenodd" d="M 756.398438 0 L 3116.5 0 C 3534.300781 0 3873 338.699219 3873 756.398438 L 3873 3116.5 C 3873 3534.300781 3534.300781 3872.898438 3116.601562 3872.898438 L 756.398438 3872.898438 C 338.699219 3873 0 3534.300781 0 3116.5 L 0 756.398438 C 0 338.699219 338.699219 0 756.398438 0 "/>
</clipPath>
<linearGradient id="linear-pattern-0" gradientUnits="userSpaceOnUse" x1="-0.194443" y1="0" x2="1.19443" y2="0" gradientTransform="matrix(2788.55, 2788.56, -2788.56, 2788.55, 542.22, 542.21)">
<stop offset="0" stop-color="rgb(55.293274%, 82.743835%, 91.763306%)" stop-opacity="1"/>
<stop offset="0.125" stop-color="rgb(55.293274%, 82.743835%, 91.763306%)" stop-opacity="1"/>
<stop offset="0.140625" stop-color="rgb(55.278015%, 82.725525%, 91.758728%)" stop-opacity="1"/>
<stop offset="0.144531" stop-color="rgb(55.06897%, 82.476807%, 91.702271%)" stop-opacity="1"/>
<stop offset="0.148437" stop-color="rgb(54.875183%, 82.247925%, 91.648865%)" stop-opacity="1"/>
<stop offset="0.152344" stop-color="rgb(54.681396%, 82.017517%, 91.595459%)" stop-opacity="1"/>
<stop offset="0.15625" stop-color="rgb(54.48761%, 81.788635%, 91.542053%)" stop-opacity="1"/>
<stop offset="0.160156" stop-color="rgb(54.293823%, 81.558228%, 91.488647%)" stop-opacity="1"/>
<stop offset="0.164062" stop-color="rgb(54.100037%, 81.329346%, 91.436768%)" stop-opacity="1"/>
<stop offset="0.167969" stop-color="rgb(53.90625%, 81.098938%, 91.383362%)" stop-opacity="1"/>
<stop offset="0.171875" stop-color="rgb(53.713989%, 80.870056%, 91.329956%)" stop-opacity="1"/>
<stop offset="0.175781" stop-color="rgb(53.520203%, 80.639648%, 91.27655%)" stop-opacity="1"/>
<stop offset="0.179688" stop-color="rgb(53.326416%, 80.409241%, 91.223145%)" stop-opacity="1"/>
<stop offset="0.183594" stop-color="rgb(53.132629%, 80.178833%, 91.169739%)" stop-opacity="1"/>
<stop offset="0.1875" stop-color="rgb(52.938843%, 79.949951%, 91.117859%)" stop-opacity="1"/>
<stop offset="0.191406" stop-color="rgb(52.745056%, 79.719543%, 91.064453%)" stop-opacity="1"/>
<stop offset="0.195312" stop-color="rgb(52.55127%, 79.490662%, 91.011047%)" stop-opacity="1"/>
<stop offset="0.199219" stop-color="rgb(52.357483%, 79.260254%, 90.957642%)" stop-opacity="1"/>
<stop offset="0.203125" stop-color="rgb(52.165222%, 79.031372%, 90.904236%)" stop-opacity="1"/>
<stop offset="0.207031" stop-color="rgb(51.971436%, 78.800964%, 90.85083%)" stop-opacity="1"/>
<stop offset="0.210937" stop-color="rgb(51.777649%, 78.572083%, 90.797424%)" stop-opacity="1"/>
<stop offset="0.214844" stop-color="rgb(51.583862%, 78.341675%, 90.744019%)" stop-opacity="1"/>
<stop offset="0.21875" stop-color="rgb(51.390076%, 78.112793%, 90.692139%)" stop-opacity="1"/>
<stop offset="0.222656" stop-color="rgb(51.196289%, 77.882385%, 90.638733%)" stop-opacity="1"/>
<stop offset="0.226562" stop-color="rgb(51.002502%, 77.651978%, 90.585327%)" stop-opacity="1"/>
<stop offset="0.230469" stop-color="rgb(50.808716%, 77.42157%, 90.531921%)" stop-opacity="1"/>
<stop offset="0.234375" stop-color="rgb(50.616455%, 77.192688%, 90.478516%)" stop-opacity="1"/>
<stop offset="0.238281" stop-color="rgb(50.422668%, 76.96228%, 90.42511%)" stop-opacity="1"/>
<stop offset="0.242188" stop-color="rgb(50.228882%, 76.733398%, 90.37323%)" stop-opacity="1"/>
<stop offset="0.246094" stop-color="rgb(50.035095%, 76.502991%, 90.319824%)" stop-opacity="1"/>
<stop offset="0.25" stop-color="rgb(49.841309%, 76.274109%, 90.266418%)" stop-opacity="1"/>
<stop offset="0.253906" stop-color="rgb(49.647522%, 76.043701%, 90.213013%)" stop-opacity="1"/>
<stop offset="0.257812" stop-color="rgb(49.453735%, 75.814819%, 90.159607%)" stop-opacity="1"/>
<stop offset="0.261719" stop-color="rgb(49.259949%, 75.584412%, 90.106201%)" stop-opacity="1"/>
<stop offset="0.265625" stop-color="rgb(49.066162%, 75.354004%, 90.052795%)" stop-opacity="1"/>
<stop offset="0.269531" stop-color="rgb(48.872375%, 75.123596%, 89.99939%)" stop-opacity="1"/>
<stop offset="0.273438" stop-color="rgb(48.680115%, 74.894714%, 89.94751%)" stop-opacity="1"/>
<stop offset="0.277344" stop-color="rgb(48.486328%, 74.664307%, 89.894104%)" stop-opacity="1"/>
<stop offset="0.28125" stop-color="rgb(48.292542%, 74.435425%, 89.840698%)" stop-opacity="1"/>
<stop offset="0.285156" stop-color="rgb(48.098755%, 74.205017%, 89.787292%)" stop-opacity="1"/>
<stop offset="0.289062" stop-color="rgb(47.904968%, 73.976135%, 89.733887%)" stop-opacity="1"/>
<stop offset="0.292969" stop-color="rgb(47.711182%, 73.745728%, 89.680481%)" stop-opacity="1"/>
<stop offset="0.296875" stop-color="rgb(47.517395%, 73.516846%, 89.628601%)" stop-opacity="1"/>
<stop offset="0.300781" stop-color="rgb(47.323608%, 73.286438%, 89.575195%)" stop-opacity="1"/>
<stop offset="0.304687" stop-color="rgb(47.131348%, 73.057556%, 89.52179%)" stop-opacity="1"/>
<stop offset="0.308594" stop-color="rgb(46.937561%, 72.827148%, 89.468384%)" stop-opacity="1"/>
<stop offset="0.3125" stop-color="rgb(46.743774%, 72.596741%, 89.414978%)" stop-opacity="1"/>
<stop offset="0.316406" stop-color="rgb(46.549988%, 72.366333%, 89.361572%)" stop-opacity="1"/>
<stop offset="0.320312" stop-color="rgb(46.356201%, 72.137451%, 89.308167%)" stop-opacity="1"/>
<stop offset="0.324219" stop-color="rgb(46.162415%, 71.907043%, 89.254761%)" stop-opacity="1"/>
<stop offset="0.328125" stop-color="rgb(45.968628%, 71.678162%, 89.202881%)" stop-opacity="1"/>
<stop offset="0.332031" stop-color="rgb(45.774841%, 71.447754%, 89.149475%)" stop-opacity="1"/>
<stop offset="0.335938" stop-color="rgb(45.582581%, 71.218872%, 89.096069%)" stop-opacity="1"/>
<stop offset="0.339844" stop-color="rgb(45.388794%, 70.988464%, 89.042664%)" stop-opacity="1"/>
<stop offset="0.34375" stop-color="rgb(45.195007%, 70.759583%, 88.989258%)" stop-opacity="1"/>
<stop offset="0.347656" stop-color="rgb(45.001221%, 70.529175%, 88.935852%)" stop-opacity="1"/>
<stop offset="0.351562" stop-color="rgb(44.807434%, 70.300293%, 88.883972%)" stop-opacity="1"/>
<stop offset="0.355469" stop-color="rgb(44.613647%, 70.069885%, 88.830566%)" stop-opacity="1"/>
<stop offset="0.359375" stop-color="rgb(44.419861%, 69.839478%, 88.777161%)" stop-opacity="1"/>
<stop offset="0.363281" stop-color="rgb(44.226074%, 69.60907%, 88.723755%)" stop-opacity="1"/>
<stop offset="0.367187" stop-color="rgb(44.033813%, 69.380188%, 88.670349%)" stop-opacity="1"/>
<stop offset="0.371094" stop-color="rgb(43.840027%, 69.14978%, 88.616943%)" stop-opacity="1"/>
<stop offset="0.375" stop-color="rgb(43.64624%, 68.920898%, 88.563538%)" stop-opacity="1"/>
<stop offset="0.378906" stop-color="rgb(43.452454%, 68.690491%, 88.510132%)" stop-opacity="1"/>
<stop offset="0.382812" stop-color="rgb(43.258667%, 68.461609%, 88.458252%)" stop-opacity="1"/>
<stop offset="0.386719" stop-color="rgb(43.06488%, 68.231201%, 88.404846%)" stop-opacity="1"/>
<stop offset="0.390625" stop-color="rgb(42.871094%, 68.002319%, 88.35144%)" stop-opacity="1"/>
<stop offset="0.394531" stop-color="rgb(42.677307%, 67.771912%, 88.298035%)" stop-opacity="1"/>
<stop offset="0.398437" stop-color="rgb(42.483521%, 67.54303%, 88.244629%)" stop-opacity="1"/>
<stop offset="0.402344" stop-color="rgb(42.289734%, 67.312622%, 88.191223%)" stop-opacity="1"/>
<stop offset="0.40625" stop-color="rgb(42.097473%, 67.082214%, 88.139343%)" stop-opacity="1"/>
<stop offset="0.410156" stop-color="rgb(41.903687%, 66.851807%, 88.085938%)" stop-opacity="1"/>
<stop offset="0.414062" stop-color="rgb(41.7099%, 66.622925%, 88.032532%)" stop-opacity="1"/>
<stop offset="0.417969" stop-color="rgb(41.516113%, 66.392517%, 87.979126%)" stop-opacity="1"/>
<stop offset="0.421875" stop-color="rgb(41.322327%, 66.163635%, 87.92572%)" stop-opacity="1"/>
<stop offset="0.425781" stop-color="rgb(41.12854%, 65.933228%, 87.872314%)" stop-opacity="1"/>
<stop offset="0.429688" stop-color="rgb(40.934753%, 65.704346%, 87.818909%)" stop-opacity="1"/>
<stop offset="0.433594" stop-color="rgb(40.740967%, 65.473938%, 87.765503%)" stop-opacity="1"/>
<stop offset="0.4375" stop-color="rgb(40.548706%, 65.245056%, 87.713623%)" stop-opacity="1"/>
<stop offset="0.441406" stop-color="rgb(40.354919%, 65.014648%, 87.660217%)" stop-opacity="1"/>
<stop offset="0.445312" stop-color="rgb(40.161133%, 64.785767%, 87.606812%)" stop-opacity="1"/>
<stop offset="0.449219" stop-color="rgb(39.967346%, 64.555359%, 87.553406%)" stop-opacity="1"/>
<stop offset="0.453125" stop-color="rgb(39.77356%, 64.324951%, 87.5%)" stop-opacity="1"/>
<stop offset="0.457031" stop-color="rgb(39.579773%, 64.094543%, 87.446594%)" stop-opacity="1"/>
<stop offset="0.460937" stop-color="rgb(39.385986%, 63.865662%, 87.393188%)" stop-opacity="1"/>
<stop offset="0.464844" stop-color="rgb(39.1922%, 63.635254%, 87.339783%)" stop-opacity="1"/>
<stop offset="0.46875" stop-color="rgb(38.999939%, 63.406372%, 87.287903%)" stop-opacity="1"/>
<stop offset="0.472656" stop-color="rgb(38.806152%, 63.175964%, 87.234497%)" stop-opacity="1"/>
<stop offset="0.476562" stop-color="rgb(38.612366%, 62.947083%, 87.181091%)" stop-opacity="1"/>
<stop offset="0.480469" stop-color="rgb(38.418579%, 62.716675%, 87.127686%)" stop-opacity="1"/>
<stop offset="0.484375" stop-color="rgb(38.224792%, 62.487793%, 87.07428%)" stop-opacity="1"/>
<stop offset="0.488281" stop-color="rgb(38.031006%, 62.257385%, 87.020874%)" stop-opacity="1"/>
<stop offset="0.492187" stop-color="rgb(37.837219%, 62.026978%, 86.968994%)" stop-opacity="1"/>
<stop offset="0.496094" stop-color="rgb(37.643433%, 61.79657%, 86.915588%)" stop-opacity="1"/>
<stop offset="0.5" stop-color="rgb(37.451172%, 61.567688%, 86.862183%)" stop-opacity="1"/>
<stop offset="0.503906" stop-color="rgb(37.257385%, 61.33728%, 86.808777%)" stop-opacity="1"/>
<stop offset="0.507812" stop-color="rgb(37.063599%, 61.108398%, 86.755371%)" stop-opacity="1"/>
<stop offset="0.511719" stop-color="rgb(36.869812%, 60.877991%, 86.701965%)" stop-opacity="1"/>
<stop offset="0.515625" stop-color="rgb(36.676025%, 60.649109%, 86.64856%)" stop-opacity="1"/>
<stop offset="0.519531" stop-color="rgb(36.482239%, 60.418701%, 86.595154%)" stop-opacity="1"/>
<stop offset="0.523438" stop-color="rgb(36.288452%, 60.189819%, 86.543274%)" stop-opacity="1"/>
<stop offset="0.527344" stop-color="rgb(36.094666%, 59.959412%, 86.489868%)" stop-opacity="1"/>
<stop offset="0.53125" stop-color="rgb(35.900879%, 59.73053%, 86.436462%)" stop-opacity="1"/>
<stop offset="0.535156" stop-color="rgb(35.707092%, 59.500122%, 86.383057%)" stop-opacity="1"/>
<stop offset="0.539062" stop-color="rgb(35.514832%, 59.269714%, 86.329651%)" stop-opacity="1"/>
<stop offset="0.542969" stop-color="rgb(35.321045%, 59.039307%, 86.276245%)" stop-opacity="1"/>
<stop offset="0.546875" stop-color="rgb(35.127258%, 58.810425%, 86.224365%)" stop-opacity="1"/>
<stop offset="0.550781" stop-color="rgb(34.933472%, 58.580017%, 86.170959%)" stop-opacity="1"/>
<stop offset="0.554688" stop-color="rgb(34.739685%, 58.351135%, 86.117554%)" stop-opacity="1"/>
<stop offset="0.558594" stop-color="rgb(34.545898%, 58.120728%, 86.064148%)" stop-opacity="1"/>
<stop offset="0.5625" stop-color="rgb(34.352112%, 57.891846%, 86.010742%)" stop-opacity="1"/>
<stop offset="0.566406" stop-color="rgb(34.158325%, 57.661438%, 85.957336%)" stop-opacity="1"/>
<stop offset="0.570312" stop-color="rgb(33.966064%, 57.432556%, 85.903931%)" stop-opacity="1"/>
<stop offset="0.574219" stop-color="rgb(33.772278%, 57.202148%, 85.850525%)" stop-opacity="1"/>
<stop offset="0.578125" stop-color="rgb(33.578491%, 56.973267%, 85.798645%)" stop-opacity="1"/>
<stop offset="0.582031" stop-color="rgb(33.384705%, 56.742859%, 85.745239%)" stop-opacity="1"/>
<stop offset="0.585938" stop-color="rgb(33.190918%, 56.512451%, 85.691833%)" stop-opacity="1"/>
<stop offset="0.589844" stop-color="rgb(32.997131%, 56.282043%, 85.638428%)" stop-opacity="1"/>
<stop offset="0.59375" stop-color="rgb(32.803345%, 56.053162%, 85.585022%)" stop-opacity="1"/>
<stop offset="0.597656" stop-color="rgb(32.609558%, 55.822754%, 85.531616%)" stop-opacity="1"/>
<stop offset="0.601562" stop-color="rgb(32.417297%, 55.593872%, 85.479736%)" stop-opacity="1"/>
<stop offset="0.605469" stop-color="rgb(32.223511%, 55.363464%, 85.426331%)" stop-opacity="1"/>
<stop offset="0.609375" stop-color="rgb(32.029724%, 55.134583%, 85.372925%)" stop-opacity="1"/>
<stop offset="0.613281" stop-color="rgb(31.835938%, 54.904175%, 85.319519%)" stop-opacity="1"/>
<stop offset="0.617188" stop-color="rgb(31.642151%, 54.675293%, 85.266113%)" stop-opacity="1"/>
<stop offset="0.621094" stop-color="rgb(31.448364%, 54.444885%, 85.212708%)" stop-opacity="1"/>
<stop offset="0.625" stop-color="rgb(31.254578%, 54.216003%, 85.159302%)" stop-opacity="1"/>
<stop offset="0.628906" stop-color="rgb(31.060791%, 53.985596%, 85.105896%)" stop-opacity="1"/>
<stop offset="0.632812" stop-color="rgb(30.867004%, 53.755188%, 85.054016%)" stop-opacity="1"/>
<stop offset="0.636719" stop-color="rgb(30.673218%, 53.52478%, 85.00061%)" stop-opacity="1"/>
<stop offset="0.640625" stop-color="rgb(30.480957%, 53.295898%, 84.947205%)" stop-opacity="1"/>
<stop offset="0.644531" stop-color="rgb(30.28717%, 53.065491%, 84.893799%)" stop-opacity="1"/>
<stop offset="0.648437" stop-color="rgb(30.093384%, 52.836609%, 84.840393%)" stop-opacity="1"/>
<stop offset="0.652344" stop-color="rgb(29.899597%, 52.606201%, 84.786987%)" stop-opacity="1"/>
<stop offset="0.65625" stop-color="rgb(29.705811%, 52.377319%, 84.735107%)" stop-opacity="1"/>
<stop offset="0.660156" stop-color="rgb(29.512024%, 52.146912%, 84.681702%)" stop-opacity="1"/>
<stop offset="0.664062" stop-color="rgb(29.318237%, 51.91803%, 84.628296%)" stop-opacity="1"/>
<stop offset="0.667969" stop-color="rgb(29.124451%, 51.687622%, 84.57489%)" stop-opacity="1"/>
<stop offset="0.671875" stop-color="rgb(28.93219%, 51.45874%, 84.521484%)" stop-opacity="1"/>
<stop offset="0.675781" stop-color="rgb(28.738403%, 51.228333%, 84.468079%)" stop-opacity="1"/>
<stop offset="0.679687" stop-color="rgb(28.544617%, 50.997925%, 84.414673%)" stop-opacity="1"/>
<stop offset="0.683594" stop-color="rgb(28.35083%, 50.767517%, 84.361267%)" stop-opacity="1"/>
<stop offset="0.6875" stop-color="rgb(28.157043%, 50.538635%, 84.309387%)" stop-opacity="1"/>
<stop offset="0.691406" stop-color="rgb(27.963257%, 50.308228%, 84.255981%)" stop-opacity="1"/>
<stop offset="0.695312" stop-color="rgb(27.76947%, 50.079346%, 84.202576%)" stop-opacity="1"/>
<stop offset="0.699219" stop-color="rgb(27.575684%, 49.848938%, 84.14917%)" stop-opacity="1"/>
<stop offset="0.703125" stop-color="rgb(27.383423%, 49.620056%, 84.095764%)" stop-opacity="1"/>
<stop offset="0.707031" stop-color="rgb(27.189636%, 49.389648%, 84.042358%)" stop-opacity="1"/>
<stop offset="0.710937" stop-color="rgb(26.99585%, 49.160767%, 83.990479%)" stop-opacity="1"/>
<stop offset="0.714844" stop-color="rgb(26.802063%, 48.930359%, 83.937073%)" stop-opacity="1"/>
<stop offset="0.71875" stop-color="rgb(26.608276%, 48.699951%, 83.883667%)" stop-opacity="1"/>
<stop offset="0.722656" stop-color="rgb(26.41449%, 48.469543%, 83.830261%)" stop-opacity="1"/>
<stop offset="0.726562" stop-color="rgb(26.220703%, 48.240662%, 83.776855%)" stop-opacity="1"/>
<stop offset="0.730469" stop-color="rgb(26.026917%, 48.010254%, 83.72345%)" stop-opacity="1"/>
<stop offset="0.734375" stop-color="rgb(25.834656%, 47.781372%, 83.670044%)" stop-opacity="1"/>
<stop offset="0.738281" stop-color="rgb(25.640869%, 47.550964%, 83.616638%)" stop-opacity="1"/>
<stop offset="0.742187" stop-color="rgb(25.447083%, 47.322083%, 83.564758%)" stop-opacity="1"/>
<stop offset="0.746094" stop-color="rgb(25.253296%, 47.091675%, 83.511353%)" stop-opacity="1"/>
<stop offset="0.75" stop-color="rgb(25.059509%, 46.862793%, 83.457947%)" stop-opacity="1"/>
<stop offset="0.753906" stop-color="rgb(24.865723%, 46.632385%, 83.404541%)" stop-opacity="1"/>
<stop offset="0.757813" stop-color="rgb(24.671936%, 46.403503%, 83.351135%)" stop-opacity="1"/>
<stop offset="0.761719" stop-color="rgb(24.478149%, 46.173096%, 83.297729%)" stop-opacity="1"/>
<stop offset="0.765625" stop-color="rgb(24.284363%, 45.942688%, 83.24585%)" stop-opacity="1"/>
<stop offset="0.769531" stop-color="rgb(24.090576%, 45.71228%, 83.192444%)" stop-opacity="1"/>
<stop offset="0.773438" stop-color="rgb(23.898315%, 45.483398%, 83.139038%)" stop-opacity="1"/>
<stop offset="0.777344" stop-color="rgb(23.704529%, 45.252991%, 83.085632%)" stop-opacity="1"/>
<stop offset="0.78125" stop-color="rgb(23.510742%, 45.024109%, 83.032227%)" stop-opacity="1"/>
<stop offset="0.785156" stop-color="rgb(23.316956%, 44.793701%, 82.978821%)" stop-opacity="1"/>
<stop offset="0.789062" stop-color="rgb(23.123169%, 44.564819%, 82.925415%)" stop-opacity="1"/>
<stop offset="0.792969" stop-color="rgb(22.929382%, 44.334412%, 82.872009%)" stop-opacity="1"/>
<stop offset="0.796875" stop-color="rgb(22.735596%, 44.10553%, 82.820129%)" stop-opacity="1"/>
<stop offset="0.800781" stop-color="rgb(22.541809%, 43.875122%, 82.766724%)" stop-opacity="1"/>
<stop offset="0.804688" stop-color="rgb(22.349548%, 43.64624%, 82.713318%)" stop-opacity="1"/>
<stop offset="0.808594" stop-color="rgb(22.155762%, 43.415833%, 82.659912%)" stop-opacity="1"/>
<stop offset="0.8125" stop-color="rgb(21.961975%, 43.185425%, 82.606506%)" stop-opacity="1"/>
<stop offset="0.816406" stop-color="rgb(21.768188%, 42.955017%, 82.553101%)" stop-opacity="1"/>
<stop offset="0.820312" stop-color="rgb(21.574402%, 42.726135%, 82.501221%)" stop-opacity="1"/>
<stop offset="0.824219" stop-color="rgb(21.380615%, 42.495728%, 82.447815%)" stop-opacity="1"/>
<stop offset="0.828125" stop-color="rgb(21.186829%, 42.266846%, 82.394409%)" stop-opacity="1"/>
<stop offset="0.832031" stop-color="rgb(20.993042%, 42.036438%, 82.341003%)" stop-opacity="1"/>
<stop offset="0.835938" stop-color="rgb(20.800781%, 41.807556%, 82.287598%)" stop-opacity="1"/>
<stop offset="0.839844" stop-color="rgb(20.606995%, 41.577148%, 82.234192%)" stop-opacity="1"/>
<stop offset="0.84375" stop-color="rgb(20.413208%, 41.348267%, 82.180786%)" stop-opacity="1"/>
<stop offset="0.847656" stop-color="rgb(20.219421%, 41.117859%, 82.12738%)" stop-opacity="1"/>
<stop offset="0.851562" stop-color="rgb(20.025635%, 40.888977%, 82.0755%)" stop-opacity="1"/>
<stop offset="0.855469" stop-color="rgb(19.831848%, 40.658569%, 82.022095%)" stop-opacity="1"/>
<stop offset="0.859375" stop-color="rgb(19.638062%, 40.428162%, 81.968689%)" stop-opacity="1"/>
<stop offset="0.875" stop-color="rgb(19.622803%, 40.409851%, 81.964111%)" stop-opacity="1"/>
<stop offset="1" stop-color="rgb(19.607544%, 40.391541%, 81.959534%)" stop-opacity="1"/>
</linearGradient>
</defs>
<g clip-path="url(#clip-0)">
<g clip-path="url(#clip-1)">
<path fill-rule="nonzero" fill="url(#linear-pattern-0)" d="M 1936.507812 -1936.5 L -1936.449219 1936.441406 L 1936.492188 5809.398438 L 5809.449219 1936.457031 Z M 1936.507812 -1936.5 "/>
</g>
</g>
<path fill-rule="evenodd" fill="rgb(100%, 100%, 99.609375%)" fill-opacity="1" d="M 1935.699219 2230.601562 C 1941.898438 2230.601562 1948.199219 2232.5 1953.5 2236.5 L 2278.800781 2474.398438 L 2154.601562 2092.601562 C 2150.601562 2080.101562 2155 2066.5 2165.601562 2058.699219 L 2491.398438 1822.101562 L 2089 1822.101562 C 2076 1822.101562 2064.199219 1813.601562 2060.300781 1801.101562 L 1936.101562 1419.300781 L 1813.398438 1801.101562 C 1809.398438 1813.601562 1797.699219 1822.101562 1784.699219 1822.101562 L 1382.300781 1822.101562 L 1707.898438 2058.699219 C 1718.5 2066.5 1723 2080.101562 1718.898438 2092.601562 L 1594.800781 2474 L 1918 2236.5 C 1923 2232.5 1929.398438 2230.601562 1935.699219 2230.601562 Z M 2336.601562 2584.199219 C 2330.398438 2584.199219 2324.101562 2582.300781 2318.800781 2578.300781 L 1935.699219 2298.199219 L 1554.5 2578.300781 C 1543.898438 2586.101562 1529.5 2586.101562 1518.898438 2578.5 C 1508.300781 2570.699219 1503.800781 2557.101562 1507.898438 2544.699219 L 1654.300781 2094.800781 L 1271.199219 1816.199219 C 1260.601562 1808.398438 1256.101562 1794.800781 1260.199219 1782.300781 C 1264.199219 1769.800781 1275.898438 1761.300781 1288.898438 1761.300781 L 1762.199219 1761.300781 L 1906.699219 1311.398438 C 1915.601562 1283.5 1955.300781 1283.5 1964.199219 1311.398438 L 2110.601562 1761.300781 L 2584.300781 1761.300781 C 2597.300781 1761.300781 2609.101562 1769.800781 2613 1782.300781 C 2617 1794.800781 2612.601562 1808.398438 2602 1816.199219 L 2218.898438 2094.601562 L 2365.300781 2544.5 C 2369.300781 2557 2364.898438 2570.601562 2354.300781 2578.398438 C 2349 2582.300781 2342.800781 2584.199219 2336.601562 2584.199219 Z M 1935.699219 952.199219 C 1393.5 952.199219 952.300781 1394.199219 952.300781 1937.5 C 952.300781 2479.699219 1393.5 2920.898438 1935.699219 2920.898438 C 2479 2920.898438 2921 2479.699219 2921 1937.5 C 2920.898438 1394.101562 2479 952.199219 1935.699219 952.199219 Z M 1935.699219 2981.300781 C 1794.800781 2981.300781 1658.101562 2953.699219 1529.300781 2899.199219 C 1405.101562 2846.601562 1293.300781 2771.398438 1197.398438 2675.5 C 1101.5 2579.601562 1026.300781 2468 973.699219 2343.601562 C 919.199219 2214.800781 891.601562 2078.101562 891.601562 1937.199219 C 891.601562 1795.898438 919.199219 1658.800781 973.699219 1529.898438 C 1026.300781 1405.300781 1101.5 1293.5 1197.398438 1197.398438 C 1293.300781 1101.5 1404.898438 1026.101562 1529.300781 973.5 C 1658.101562 919.199219 1794.800781 891.601562 1935.699219 891.601562 C 2077.199219 891.601562 2214.101562 919.199219 2343 973.699219 C 2467.601562 1026.300781 2579.398438 1101.699219 2675.5 1197.601562 C 2771.601562 1293.699219 2846.800781 1405.398438 2899.398438 1530.101562 C 2953.898438 1659.101562 2981.5 1796.199219 2981.5 1937.398438 C 2981.5 2078.300781 2953.898438 2215 2899.398438 2343.800781 C 2846.800781 2468 2771.398438 2579.800781 2675.5 2675.699219 C 2579.398438 2771.601562 2467.699219 2846.800781 2343 2899.398438 C 2214 2953.699219 2076.898438 2981.300781 1935.699219 2981.300781 Z M 1935.699219 3202.601562 C 1765.300781 3202.601562 1599.800781 3169.101562 1444 3102.898438 C 1293.699219 3039.199219 1158.398438 2947.800781 1042.5 2831.5 C 926.601562 2715.199219 835.398438 2580 771.699219 2429.300781 C 705.898438 2273.300781 672.398438 2107.800781 672.398438 1937.398438 C 672.398438 1766.398438 705.898438 1600.800781 771.699219 1444.601562 C 835.199219 1293.898438 926.398438 1158.699219 1042.5 1042.601562 C 1158.398438 926.5 1293.601562 835.300781 1444 771.601562 C 1599.800781 705.601562 1765.101562 672.300781 1935.699219 672.300781 C 2106.699219 672.300781 2272.5 705.800781 2428.5 771.601562 C 2579.199219 835.300781 2714.398438 926.5 2830.5 1042.601562 C 2946.601562 1158.699219 3037.800781 1293.898438 3101.5 1444.601562 C 3167.5 1600.601562 3200.800781 1766.5 3200.800781 1937.398438 C 3200.800781 2108 3167.300781 2273.5 3101.5 2429.300781 C 3037.800781 2580 2946.601562 2715.199219 2830.5 2831.5 C 2714.398438 2947.800781 2579 3039.101562 2428.5 3102.898438 C 2272.300781 3169.101562 2106.601562 3202.601562 1935.699219 3202.601562 "/>
<path fill-rule="evenodd" fill="rgb(100%, 100%, 99.609375%)" fill-opacity="1" d="M 1522 512 L 1583.398438 495.5 C 1616.398438 486.699219 1650.800781 506.5 1659.601562 539.5 C 1668.398438 572.5 1648.601562 606.898438 1615.601562 615.699219 L 1554.199219 632.199219 C 1521.199219 641 1486.800781 621.199219 1478 588.199219 C 1469.101562 555.199219 1489 520.800781 1522 512 Z M 1167.398438 667.800781 L 1222.5 636 C 1252.199219 618.898438 1290.398438 629.101562 1307.5 658.800781 C 1324.601562 688.5 1314.398438 726.699219 1284.699219 743.800781 L 1229.601562 775.601562 C 1199.898438 792.699219 1161.699219 782.5 1144.601562 752.800781 C 1127.5 723.199219 1137.800781 684.898438 1167.398438 667.800781 Z M 865.300781 910.101562 L 910.300781 865.101562 C 934.601562 840.800781 974.101562 840.898438 998.300781 865.101562 C 1022.601562 889.398438 1022.601562 928.898438 998.300781 953.101562 L 953.300781 998.101562 C 929 1022.398438 889.5 1022.300781 865.300781 998.101562 C 841 973.800781 841 934.300781 865.300781 910.101562 Z M 636.101562 1222.300781 L 667.898438 1167.199219 C 685 1137.5 723.300781 1127.300781 752.898438 1144.398438 C 782.601562 1161.5 792.800781 1199.800781 775.699219 1229.398438 L 743.898438 1284.5 C 726.800781 1314.199219 688.5 1324.398438 658.898438 1307.300781 C 629.199219 1290.199219 619 1251.898438 636.101562 1222.300781 Z M 495.601562 1583.199219 L 512.101562 1521.800781 C 520.898438 1488.800781 555.398438 1468.898438 588.300781 1477.800781 C 621.300781 1486.601562 641.199219 1521 632.300781 1554 L 615.800781 1615.398438 C 607 1648.398438 572.5 1668.300781 539.601562 1659.398438 C 506.601562 1650.601562 486.699219 1616.199219 495.601562 1583.199219 Z M 453.199219 1968.199219 L 453.199219 1904.601562 C 453.199219 1870.300781 481.199219 1842.398438 515.5 1842.398438 C 549.800781 1842.398438 577.800781 1870.300781 577.800781 1904.601562 L 577.800781 1968.199219 C 577.800781 2002.5 549.800781 2030.398438 515.5 2030.398438 C 481.199219 2030.398438 453.199219 2002.5 453.199219 1968.199219 Z M 512 2351 L 495.5 2289.601562 C 486.699219 2256.601562 506.5 2222.199219 539.5 2213.398438 C 572.5 2204.601562 606.898438 2224.398438 615.699219 2257.398438 L 632.199219 2318.800781 C 641 2351.800781 621.199219 2386.199219 588.199219 2395 C 555.199219 2403.800781 520.800781 2384 512 2351 Z M 667.800781 2705.601562 L 636 2650.5 C 618.898438 2620.800781 629.101562 2582.601562 658.800781 2565.5 C 688.5 2548.398438 726.699219 2558.601562 743.800781 2588.300781 L 775.601562 2643.398438 C 792.699219 2673.101562 782.5 2711.300781 752.800781 2728.398438 C 723.199219 2745.5 684.898438 2735.199219 667.800781 2705.601562 Z M 910.101562 3007.699219 L 865.101562 2962.699219 C 840.800781 2938.398438 840.898438 2898.898438 865.101562 2874.699219 C 889.398438 2850.398438 928.898438 2850.398438 953.101562 2874.699219 L 998.101562 2919.699219 C 1022.398438 2944 1022.300781 2983.5 998.101562 3007.699219 C 973.800781 3032 934.300781 3032 910.101562 3007.699219 Z M 1222.300781 3236.898438 L 1167.199219 3205.101562 C 1137.5 3188 1127.300781 3149.699219 1144.398438 3120.101562 C 1161.5 3090.398438 1199.800781 3080.199219 1229.398438 3097.300781 L 1284.5 3129.101562 C 1314.199219 3146.199219 1324.398438 3184.5 1307.300781 3214.101562 C 1290.199219 3243.699219 1252 3254 1222.300781 3236.898438 Z M 1583.199219 3377.398438 L 1521.800781 3360.898438 C 1488.800781 3352.101562 1468.898438 3317.601562 1477.800781 3284.699219 C 1486.601562 3251.699219 1521 3231.800781 1554 3240.699219 L 1615.398438 3257.199219 C 1648.398438 3266 1668.300781 3300.5 1659.398438 3333.398438 C 1650.601562 3366.398438 1616.199219 3386.300781 1583.199219 3377.398438 Z M 1968.199219 3419.800781 L 1904.601562 3419.800781 C 1870.300781 3419.800781 1842.398438 3391.800781 1842.398438 3357.5 C 1842.398438 3323.199219 1870.300781 3295.199219 1904.601562 3295.199219 L 1968.199219 3295.199219 C 2002.5 3295.199219 2030.398438 3323.199219 2030.398438 3357.5 C 2030.398438 3391.800781 2002.5 3419.800781 1968.199219 3419.800781 Z M 2351 3361 L 2289.601562 3377.5 C 2256.601562 3386.300781 2222.199219 3366.5 2213.398438 3333.5 C 2204.601562 3300.5 2224.398438 3266.101562 2257.398438 3257.300781 L 2318.800781 3240.800781 C 2351.800781 3232 2386.199219 3251.800781 2395 3284.800781 C 2403.800781 3317.800781 2384 3352.199219 2351 3361 Z M 2705.601562 3205.199219 L 2650.5 3237 C 2620.800781 3254.101562 2582.601562 3243.898438 2565.5 3214.199219 C 2548.398438 3184.5 2558.601562 3146.300781 2588.300781 3129.199219 L 2643.398438 3097.398438 C 2673.101562 3080.300781 2711.300781 3090.5 2728.398438 3120.199219 C 2745.5 3149.898438 2735.199219 3188.101562 2705.601562 3205.199219 Z M 3007.699219 2962.898438 L 2962.699219 3007.898438 C 2938.398438 3032.199219 2898.898438 3032.101562 2874.699219 3007.898438 C 2850.398438 2983.601562 2850.398438 2944.101562 2874.699219 2919.898438 L 2919.699219 2874.898438 C 2944 2850.601562 2983.5 2850.699219 3007.699219 2874.898438 C 3032 2899.101562 3032 2938.699219 3007.699219 2962.898438 Z M 3236.898438 2650.699219 L 3205.101562 2705.800781 C 3188 2735.5 3149.699219 2745.699219 3120.101562 2728.601562 C 3090.398438 2711.5 3080.199219 2673.199219 3097.300781 2643.601562 L 3129.101562 2588.5 C 3146.199219 2558.800781 3184.5 2548.601562 3214.101562 2565.699219 C 3243.800781 2582.800781 3254 2621 3236.898438 2650.699219 Z M 3377.398438 2289.800781 L 3360.898438 2351.199219 C 3352.101562 2384.199219 3317.601562 2404.101562 3284.699219 2395.199219 C 3251.699219 2386.398438 3231.800781 2352 3240.699219 2319 L 3257.199219 2257.601562 C 3266 2224.601562 3300.5 2204.699219 3333.398438 2213.601562 C 3366.398438 2222.398438 3386.300781 2256.800781 3377.398438 2289.800781 Z M 3419.800781 1904.800781 L 3419.800781 1968.398438 C 3419.800781 2002.699219 3391.800781 2030.601562 3357.5 2030.601562 C 3323.199219 2030.601562 3295.199219 2002.699219 3295.199219 1968.398438 L 3295.199219 1904.800781 C 3295.199219 1870.5 3323.199219 1842.601562 3357.5 1842.601562 C 3391.800781 1842.601562 3419.800781 1870.5 3419.800781 1904.800781 Z M 3361 1522 L 3377.5 1583.398438 C 3386.300781 1616.398438 3366.5 1650.800781 3333.5 1659.601562 C 3300.5 1668.398438 3266.101562 1648.601562 3257.300781 1615.601562 L 3240.800781 1554.199219 C 3232 1521.199219 3251.800781 1486.800781 3284.800781 1478 C 3317.800781 1469.101562 3352.199219 1489 3361 1522 Z M 3205.199219 1167.398438 L 3237 1222.5 C 3254.101562 1252.199219 3243.898438 1290.398438 3214.199219 1307.5 C 3184.5 1324.601562 3146.300781 1314.398438 3129.199219 1284.699219 L 3097.398438 1229.601562 C 3080.300781 1199.898438 3090.5 1161.699219 3120.199219 1144.601562 C 3149.800781 1127.5 3188.101562 1137.800781 3205.199219 1167.398438 Z M 2962.898438 865.300781 L 3007.898438 910.300781 C 3032.199219 934.601562 3032.101562 974.101562 3007.898438 998.300781 C 2983.601562 1022.601562 2944.101562 1022.601562 2919.898438 998.300781 L 2874.898438 953.300781 C 2850.601562 929 2850.699219 889.5 2874.898438 865.300781 C 2899.101562 841 2938.699219 841 2962.898438 865.300781 Z M 2650.699219 636.101562 L 2705.800781 667.898438 C 2735.5 685 2745.699219 723.300781 2728.601562 752.898438 C 2711.5 782.601562 2673.199219 792.800781 2643.601562 775.699219 L 2588.5 743.898438 C 2558.800781 726.800781 2548.601562 688.5 2565.699219 658.898438 C 2582.800781 629.199219 2621 619 2650.699219 636.101562 Z M 2289.800781 495.601562 L 2351.199219 512.101562 C 2384.199219 520.898438 2404.101562 555.398438 2395.199219 588.300781 C 2386.398438 621.300781 2352 641.199219 2319 632.300781 L 2257.601562 615.800781 C 2224.601562 607 2204.699219 572.5 2213.601562 539.601562 C 2222.398438 506.601562 2256.800781 486.699219 2289.800781 495.601562 Z M 1904.800781 453.199219 L 1968.398438 453.199219 C 2002.699219 453.199219 2030.601562 481.199219 2030.601562 515.5 C 2030.601562 549.800781 2002.699219 577.800781 1968.398438 577.800781 L 1904.800781 577.800781 C 1870.5 577.800781 1842.601562 549.800781 1842.601562 515.5 C 1842.601562 481.199219 1870.5 453.199219 1904.800781 453.199219 "/>
</svg>
