<?xml version="1.0" encoding="UTF-8"?>
<!DOCTYPE svg PUBLIC "-//W3C//DTD SVG 1.1//EN" "http://www.w3.org/Graphics/SVG/1.1/DTD/svg11.dtd">
<svg xmlns="http://www.w3.org/2000/svg" version="1.1" width="1341px" height="898px" style="shape-rendering:geometricPrecision; text-rendering:geometricPrecision; image-rendering:optimizeQuality; fill-rule:evenodd; clip-rule:evenodd" xmlns:xlink="http://www.w3.org/1999/xlink">
<g><path style="opacity:1" fill="#000000" d="M -0.5,-0.5 C 446.5,-0.5 893.5,-0.5 1340.5,-0.5C 1340.5,298.833 1340.5,598.167 1340.5,897.5C 893.5,897.5 446.5,897.5 -0.5,897.5C -0.5,598.167 -0.5,298.833 -0.5,-0.5 Z"/></g>
<g><path style="opacity:1" fill="#f3f3f3" d="M 988.5,274.5 C 989.873,274.343 991.207,274.51 992.5,275C 1008.33,286.833 1024.17,298.667 1040,310.5C 1041.33,319.468 1041.66,328.468 1041,337.5C 1037.22,342.201 1033.22,342.534 1029,338.5C 1028.67,331.167 1028.33,323.833 1028,316.5C 1014.98,305.976 1001.81,295.643 988.5,285.5C 973.52,297.979 958.686,310.646 944,323.5C 943.667,330.167 943.333,336.833 943,343.5C 937.4,349.409 934.567,348.242 934.5,340C 934.972,333.831 935.472,327.664 936,321.5C 953.397,305.597 970.897,289.931 988.5,274.5 Z"/></g>
<g><path style="opacity:1" fill="#f6f6f6" d="M 986.5,301.5 C 989.564,301.144 992.231,301.977 994.5,304C 1002.36,310.689 1010.36,317.189 1018.5,323.5C 1019.66,331.479 1019.83,339.479 1019,347.5C 1007.46,357.38 995.622,366.88 983.5,376C 981.671,377.113 980.837,378.613 981,380.5C 983.333,382.5 985.667,384.5 988,386.5C 1001.26,375.786 1014.43,364.953 1027.5,354C 1034.98,352.311 1037.82,355.144 1036,362.5C 1020.2,376.313 1003.87,389.313 987,401.5C 986.167,401.333 985.333,401.167 984.5,401C 974,390.5 963.5,380 953,369.5C 952.516,356.486 952.849,343.486 954,330.5C 965.028,320.968 975.861,311.301 986.5,301.5 Z"/></g>
<g><path style="opacity:1" fill="#0c0c0c" d="M 986.5,359.5 C 985.512,354.36 985.179,349.026 985.5,343.5C 988.959,342.564 991.793,340.564 994,337.5C 994.81,334.113 993.644,331.613 990.5,330C 988.833,329.333 987.167,329.333 985.5,330C 982.02,332.646 978.686,335.479 975.5,338.5C 974.474,349.817 973.641,361.151 973,372.5C 969.965,369.13 966.632,366.13 963,363.5C 962.333,353.5 962.333,343.5 963,333.5C 971.021,326.644 979.188,319.977 987.5,313.5C 994.436,318.266 1000.94,323.6 1007,329.5C 1007.67,333.833 1007.67,338.167 1007,342.5C 1000.41,348.533 993.579,354.199 986.5,359.5 Z"/></g>
<g><path style="opacity:1" fill="#818181" d="M 985.5,343.5 C 985.179,349.026 985.512,354.36 986.5,359.5C 986.44,360.043 986.107,360.376 985.5,360.5C 984.184,354.68 984.184,349.013 985.5,343.5 Z"/></g>
<g><path style="opacity:1" fill="#fbfbfb" d="M 477.5,402.5 C 506.264,397.567 528.764,406.901 545,430.5C 556.627,456.6 554.294,481.266 538,504.5C 522.75,519.948 504.25,526.115 482.5,523C 459.585,519.756 444.085,507.256 436,485.5C 425.898,454.429 433.731,429.263 459.5,410C 465.294,406.797 471.294,404.297 477.5,402.5 Z"/></g>
<g><path style="opacity:1" fill="#fbfbfb" d="M 357.5,480.5 C 357.132,494.9 356.132,509.234 354.5,523.5C 347.5,523.5 340.5,523.5 333.5,523.5C 333.5,483.167 333.5,442.833 333.5,402.5C 353.169,402.333 372.836,402.5 392.5,403C 419.478,408.665 430.645,425.165 426,452.5C 420.887,468.322 410.053,477.488 393.5,480C 381.505,480.5 369.505,480.667 357.5,480.5 Z"/></g>
<g><path style="opacity:1" fill="#f1f1f1" d="M 560.5,402.5 C 580.503,402.333 600.503,402.5 620.5,403C 657.089,414.651 671.589,439.485 664,477.5C 658.799,501.086 644.633,516.252 621.5,523C 610.839,523.5 600.172,523.667 589.5,523.5C 589.5,521.5 589.5,519.5 589.5,517.5C 599.015,517.827 608.348,517.494 617.5,516.5C 618.93,515.463 620.597,514.796 622.5,514.5C 625.716,514.655 628.383,513.655 630.5,511.5C 651.6,497.916 659.934,478.583 655.5,453.5C 653.881,447.987 653.048,442.32 653,436.5C 644.86,422.842 633.027,414.175 617.5,410.5C 598.674,409.503 579.674,409.17 560.5,409.5C 560.5,407.167 560.5,404.833 560.5,402.5 Z"/></g>
<g><path style="opacity:1" fill="#fcfcfc" d="M 794.5,445.5 C 793.181,452.677 793.181,460.01 794.5,467.5C 795.107,467.376 795.44,467.043 795.5,466.5C 804.833,456.833 814.167,447.167 823.5,437.5C 832.349,437.174 841.016,437.507 849.5,438.5C 840.188,448.146 830.855,457.813 821.5,467.5C 833.031,485.2 844.364,503.033 855.5,521C 846.5,521.667 837.5,521.667 828.5,521C 821.041,508.578 813.207,496.412 805,484.5C 800.667,487.5 797,491.167 794,495.5C 793.5,504.16 793.334,512.827 793.5,521.5C 786.167,521.5 778.833,521.5 771.5,521.5C 771.5,481.833 771.5,442.167 771.5,402.5C 779.167,402.5 786.833,402.5 794.5,402.5C 794.5,416.833 794.5,431.167 794.5,445.5 Z"/></g>
<g><path style="opacity:1" fill="#afafaf" d="M 560.5,402.5 C 560.5,404.833 560.5,407.167 560.5,409.5C 579.674,409.17 598.674,409.503 617.5,410.5C 598.167,410.5 578.833,410.5 559.5,410.5C 559.194,407.615 559.527,404.948 560.5,402.5 Z"/></g>
<g><path style="opacity:1" fill="#909090" d="M 571.5,421.5 C 569.282,419.156 566.615,418.823 563.5,420.5C 565.988,418.612 568.988,417.945 572.5,418.5C 572.737,419.791 572.404,420.791 571.5,421.5 Z"/></g>
<g><path style="opacity:1" fill="#ececec" d="M 571.5,421.5 C 567.173,428.798 565.006,436.798 565,445.5C 559.895,451.279 556.395,450.446 554.5,443C 556.303,434.913 559.303,427.413 563.5,420.5C 566.615,418.823 569.282,419.156 571.5,421.5 Z"/></g>
<g><path style="opacity:1" fill="#ebebeb" d="M 579.5,418.5 C 582.167,418.5 584.833,418.5 587.5,418.5C 585.936,427.733 584.77,437.066 584,446.5C 581.872,449.458 579.206,450.124 576,448.5C 575.023,445.759 574.523,442.925 574.5,440C 575.718,432.743 577.385,425.577 579.5,418.5 Z"/></g>
<g><path style="opacity:1" fill="#f6f6f6" d="M 603.5,446.5 C 600.729,450.415 597.895,450.415 595,446.5C 594.335,438.144 594.501,429.811 595.5,421.5C 597.8,419.798 600.467,419.132 603.5,419.5C 603.5,428.5 603.5,437.5 603.5,446.5 Z"/></g>
<g><path style="opacity:1" fill="#eeeeee" d="M 611.5,418.5 C 614.448,418.223 617.281,418.556 620,419.5C 622.655,426.576 624.155,433.909 624.5,441.5C 624.163,449.399 620.997,451.066 615,446.5C 613.938,437.149 612.771,427.816 611.5,418.5 Z"/></g>
<g><path style="opacity:1" fill="#040404" d="M 357.5,423.5 C 369.229,423.088 380.896,423.588 392.5,425C 402.075,431.058 404.909,439.558 401,450.5C 397.629,455.777 392.796,458.943 386.5,460C 376.839,460.5 367.172,460.666 357.5,460.5C 357.5,448.167 357.5,435.833 357.5,423.5 Z"/></g>
<g><path style="opacity:1" fill="#040404" d="M 486.5,427.5 C 505.549,426.758 516.383,435.758 519,454.5C 520.716,465.762 519.049,476.428 514,486.5C 506.284,496.934 496.118,500.434 483.5,497C 477.201,495.037 472.368,491.203 469,485.5C 463.031,470.526 463.031,455.526 469,440.5C 473.102,433.53 478.935,429.197 486.5,427.5 Z"/></g>
<g><path style="opacity:1" fill="#eeeeee" d="M 629.5,425.5 C 635.023,428.51 639.856,432.51 644,437.5C 645.023,441.317 644.523,444.817 642.5,448C 639.653,448.944 637.153,448.444 635,446.5C 634.667,443.167 634.333,439.833 634,436.5C 632.232,432.914 630.732,429.247 629.5,425.5 Z"/></g>
<g><path style="opacity:1" fill="#f9f9f9" d="M 706.5,435.5 C 720.699,433.223 733.699,436.057 745.5,444C 763.05,461.462 766.217,481.296 755,503.5C 737.622,524.96 716.788,529.126 692.5,516C 678.402,504.178 672.569,489.012 675,470.5C 679.065,452.94 689.565,441.273 706.5,435.5 Z"/></g>
<g><path style="opacity:1" fill="#fafafa" d="M 885.5,435.5 C 897.205,434.542 908.538,436.042 919.5,440C 926.194,443.542 930.361,449.042 932,456.5C 932.333,474.167 932.667,491.833 933,509.5C 933.568,513.537 934.735,517.37 936.5,521C 928.833,521.667 921.167,521.667 913.5,521C 911.765,518.808 910.598,516.308 910,513.5C 897.968,524.228 884.468,526.395 869.5,520C 858.297,512.739 854.464,502.572 858,489.5C 862.532,478.645 870.699,472.811 882.5,472C 891.827,471.5 901.161,471.334 910.5,471.5C 912.243,455.419 905.243,449.586 889.5,454C 886.733,456.099 884.733,458.766 883.5,462C 875.845,462.015 868.178,461.848 860.5,461.5C 862.136,452.024 867.136,444.857 875.5,440C 879.061,438.768 882.394,437.268 885.5,435.5 Z"/></g>
<g><path style="opacity:1" fill="#f9f9f9" d="M 987.5,435.5 C 1006.95,432.63 1019.11,440.63 1024,459.5C 1024.5,480.164 1024.67,500.831 1024.5,521.5C 1016.83,521.5 1009.17,521.5 1001.5,521.5C 1001.92,502.126 1001.42,482.793 1000,463.5C 991.647,452.713 982.647,452.046 973,461.5C 972.138,463.087 971.471,464.754 971,466.5C 970.5,484.83 970.333,503.164 970.5,521.5C 962.833,521.5 955.167,521.5 947.5,521.5C 947.5,493.5 947.5,465.5 947.5,437.5C 954.457,436.614 961.457,436.28 968.5,436.5C 968.174,440.884 968.508,445.217 969.5,449.5C 974.087,442.901 980.087,438.234 987.5,435.5 Z"/></g>
<g><path style="opacity:1" fill="#bebebe" d="M 823.5,437.5 C 832.657,436.342 841.991,436.176 851.5,437C 850.956,437.717 850.289,438.217 849.5,438.5C 841.016,437.507 832.349,437.174 823.5,437.5 Z"/></g>
<g><path style="opacity:1" fill="#9d9d9d" d="M 603.5,446.5 C 603.5,437.5 603.5,428.5 603.5,419.5C 600.467,419.132 597.8,419.798 595.5,421.5C 595.5,420.5 595.5,419.5 595.5,418.5C 598.5,418.5 601.5,418.5 604.5,418.5C 604.827,428.015 604.494,437.348 603.5,446.5 Z"/></g>
<g><path style="opacity:1" fill="#f5f5f5" d="M 630.5,451.5 C 630.829,466.343 630.496,481.01 629.5,495.5C 627.5,494.167 625.833,492.5 624.5,490.5C 624.5,480.833 624.5,471.167 624.5,461.5C 612.5,461.5 600.5,461.5 588.5,461.5C 588.174,457.116 588.508,452.783 589.5,448.5C 595.615,456.173 602.281,456.506 609.5,449.5C 614.997,456.835 620.997,457.335 627.5,451C 628.749,450.26 629.749,450.427 630.5,451.5 Z"/></g>
<g><path style="opacity:1" fill="#fafafa" d="M 566.5,453.5 C 567.498,476.661 567.831,499.994 567.5,523.5C 565.167,523.5 562.833,523.5 560.5,523.5C 560.5,500.5 560.5,477.5 560.5,454.5C 562.565,454.483 564.565,454.15 566.5,453.5 Z"/></g>
<g><path style="opacity:1" fill="#b1b1b1" d="M 630.5,451.5 C 631.826,466.339 631.826,481.339 630.5,496.5C 629.893,496.376 629.56,496.043 629.5,495.5C 630.496,481.01 630.829,466.343 630.5,451.5 Z"/></g>
<g><path style="opacity:1" fill="#050505" d="M 709.5,454.5 C 723.138,451.565 732.304,456.565 737,469.5C 737.667,476.167 737.667,482.833 737,489.5C 730.35,505.321 719.683,508.988 705,500.5C 697.693,489.719 696.026,478.052 700,465.5C 702.314,461.025 705.48,457.358 709.5,454.5 Z"/></g>
<g><path style="opacity:1" fill="#f8f8f8" d="M 582.5,455.5 C 583.497,477.994 583.831,500.661 583.5,523.5C 581.167,523.5 578.833,523.5 576.5,523.5C 576.5,500.833 576.5,478.167 576.5,455.5C 578.5,455.5 580.5,455.5 582.5,455.5 Z"/></g>
<g><path style="opacity:1" fill="#f6f6f6" d="M 644.5,454.5 C 646.197,456.305 647.03,458.639 647,461.5C 647.499,466.489 647.666,471.489 647.5,476.5C 646.456,481.651 644.456,486.318 641.5,490.5C 640.505,479.012 640.172,467.345 640.5,455.5C 641.568,454.566 642.901,454.232 644.5,454.5 Z"/></g>
<g><path style="opacity:1" fill="#696969" d="M 794.5,445.5 C 794.175,452.687 794.509,459.687 795.5,466.5C 795.44,467.043 795.107,467.376 794.5,467.5C 793.181,460.01 793.181,452.677 794.5,445.5 Z"/></g>
<g><path style="opacity:1" fill="#353535" d="M 582.5,454.5 C 583.209,453.596 584.209,453.263 585.5,453.5C 585.831,477.006 585.498,500.339 584.5,523.5C 585.156,500.142 584.49,477.142 582.5,454.5 Z"/></g>
<g><path style="opacity:1" fill="#cecece" d="M 582.5,455.5 C 582.5,455.167 582.5,454.833 582.5,454.5C 584.49,477.142 585.156,500.142 584.5,523.5C 584.167,523.5 583.833,523.5 583.5,523.5C 583.831,500.661 583.497,477.994 582.5,455.5 Z"/></g>
<g><path style="opacity:1" fill="#8c8c8c" d="M 640.5,455.5 C 640.172,467.345 640.505,479.012 641.5,490.5C 641.631,491.376 641.298,492.043 640.5,492.5C 639.175,480.006 639.175,467.673 640.5,455.5 Z"/></g>
<g><path style="opacity:1" fill="#828282" d="M 644.5,454.5 C 645.209,453.596 646.209,453.263 647.5,453.5C 648.709,461.315 648.709,468.982 647.5,476.5C 647.666,471.489 647.499,466.489 647,461.5C 647.03,458.639 646.197,456.305 644.5,454.5 Z"/></g>
<g><path style="opacity:1" fill="#a0a0a0" d="M 588.5,461.5 C 600.5,461.5 612.5,461.5 624.5,461.5C 624.5,471.167 624.5,480.833 624.5,490.5C 623.506,481.348 623.173,472.015 623.5,462.5C 611.655,462.828 599.988,462.495 588.5,461.5 Z"/></g>
<g><path style="opacity:1" fill="#3a3a3a" d="M 582.5,454.5 C 582.5,454.833 582.5,455.167 582.5,455.5C 580.5,455.5 578.5,455.5 576.5,455.5C 576.5,478.167 576.5,500.833 576.5,523.5C 575.502,500.673 575.169,477.673 575.5,454.5C 577.833,454.5 580.167,454.5 582.5,454.5 Z"/></g>
<g><path style="opacity:1" fill="#b2b2b2" d="M 357.5,480.5 C 357.5,494.833 357.5,509.167 357.5,523.5C 356.5,523.5 355.5,523.5 354.5,523.5C 356.132,509.234 357.132,494.9 357.5,480.5 Z"/></g>
<g><path style="opacity:1" fill="#070707" d="M 887.5,486.5 C 895.167,486.5 902.833,486.5 910.5,486.5C 911.016,499.162 904.849,506.162 892,507.5C 882.197,506.072 878.53,500.739 881,491.5C 882.965,489.45 885.132,487.783 887.5,486.5 Z"/></g>
<g><path style="opacity:1" fill="#9b9b9b" d="M 567.5,523.5 C 567.831,499.994 567.498,476.661 566.5,453.5C 566.369,452.624 566.702,451.957 567.5,451.5C 568.829,475.663 568.829,499.663 567.5,523.5 Z"/></g>
<g><path style="opacity:1" fill="#f1f1f1" d="M 619.5,494.5 C 623.833,495.5 626.5,498.167 627.5,502.5C 622.544,504.096 617.544,505.596 612.5,507C 604.507,507.5 596.507,507.666 588.5,507.5C 588.5,505.167 588.5,502.833 588.5,500.5C 595.841,500.666 603.174,500.5 610.5,500C 614.2,499.157 617.2,497.324 619.5,494.5 Z"/></g>
<g><path style="opacity:1" fill="#939393" d="M 630.5,511.5 C 628.383,513.655 625.716,514.655 622.5,514.5C 624.936,513.129 627.603,512.129 630.5,511.5 Z"/></g>
<g><path style="opacity:1" fill="#c1c1c1" d="M 617.5,516.5 C 608.348,517.494 599.015,517.827 589.5,517.5C 589.5,519.5 589.5,521.5 589.5,523.5C 588.532,521.393 588.198,519.059 588.5,516.5C 598.167,516.5 607.833,516.5 617.5,516.5 Z"/></g>
</svg>
